<?xml version="1.0" encoding="utf-8"?>
<!-- Generator: Adobe Illustrator 16.0.4, SVG Export Plug-In . SVG Version: 6.00 Build 0)  -->
<!DOCTYPE svg PUBLIC "-//W3C//DTD SVG 1.1//EN" "http://www.w3.org/Graphics/SVG/1.1/DTD/svg11.dtd">
<svg version="1.1" id="Layer_1" xmlns="http://www.w3.org/2000/svg" xmlns:xlink="http://www.w3.org/1999/xlink" x="0px" y="0px"
	 width="284.5px" height="240px" viewBox="0 290.5 284.5 240" enable-background="new 0 290.5 284.5 240" xml:space="preserve">
<g>
	<defs>
		<rect id="SVGID_1_" y="290.5" width="284.5" height="240"/>
	</defs>
	<clipPath id="SVGID_2_">
		<use xlink:href="#SVGID_1_"  overflow="visible"/>
	</clipPath>
	<g clip-path="url(#SVGID_2_)">
		<path fill-opacity="0" d="M14.604,303.412h11.475v11.475H14.604V303.412z"/>
		<g>
			<g transform="matrix(1.0 0.0 0.0 1.0 22.908136482939632 124.76377952755905)">
				<defs>
					<rect id="SVGID_3_" x="-8.304" y="178.648" width="11.475" height="11.475"/>
				</defs>
				<clipPath id="SVGID_4_">
					<use xlink:href="#SVGID_3_"  overflow="visible"/>
				</clipPath>
				<g transform="matrix(1 0 0 1 0 -1.525879e-05)" clip-path="url(#SVGID_4_)" enable-background="new    ">
					
						<image overflow="visible" width="18" height="18" xlink:href="5E2A77FD0720A0B6.png"  transform="matrix(0.6375 0 0 0.6375 -8.3041 178.6478)">
					</image>
				</g>
			</g>
			<path fill-opacity="0" d="M-8.304,274.437H3.171v11.475H-8.304V274.437z"/>
			<g>
				<g transform="matrix(1.0 0.0 0.0 1.0 22.908136482939632 275.0209973753281)">
					<defs>
						<rect id="SVGID_5_" x="-31.212" y="-0.584" width="11.475" height="11.475"/>
					</defs>
					<clipPath id="SVGID_6_">
						<use xlink:href="#SVGID_5_"  overflow="visible"/>
					</clipPath>
					<g clip-path="url(#SVGID_6_)" enable-background="new    ">
						
							<image overflow="visible" width="18" height="18" xlink:href="5E2A77FD0720A0BA.png"  transform="matrix(0.6375 0 0 0.6375 -31.2123 -0.5836)">
						</image>
					</g>
				</g>
				<path fill-opacity="0" d="M-31.85,104.541h12.75v16.575h-12.75V104.541z"/>
				<g>
					<g transform="matrix(1.0 0.0 0.0 1.0 21.908136482939632 439.9238845144357)">
						<defs>
							<rect id="SVGID_7_" x="-53.758" y="-335.383" width="12.75" height="16.575"/>
						</defs>
						<clipPath id="SVGID_8_">
							<use xlink:href="#SVGID_7_"  overflow="visible"/>
						</clipPath>
						<g clip-path="url(#SVGID_8_)" enable-background="new    ">
							
								<image overflow="visible" width="20" height="26" xlink:href="5E2A77FD0720A0BB.png"  transform="matrix(0.6375 0 0 0.6375 -53.7581 -335.3825)">
							</image>
						</g>
					</g>
					<path fill-opacity="0" d="M-54.395-388.437h14.025v16.575h-14.025V-388.437z"/>
					<g>
						<g transform="matrix(1.0 0.0 0.0 1.0 20.908136482939632 356.7007874015748)">
							<defs>
								<rect id="SVGID_9_" x="-75.303" y="-745.138" width="14.025" height="16.575"/>
							</defs>
							<clipPath id="SVGID_10_">
								<use xlink:href="#SVGID_9_"  overflow="visible"/>
							</clipPath>
							<g clip-path="url(#SVGID_10_)" enable-background="new    ">
								
									<image overflow="visible" width="22" height="26" xlink:href="5E2A77FD0720A0BC.png"  transform="matrix(0.6375 0 0 0.6375 -75.303 -745.1379)">
								</image>
							</g>
						</g>
						<path fill-opacity="0" d="M166.445-819.743h16.14v17.934h-16.14V-819.743z"/>
						<g>
							<g transform="matrix(0.7032661417322834 0.0 0.0 0.7032808398950131 400.12073490813646 239.67191601049868)">
								<defs>
									<rect id="SVGID_11_" x="-328.868" y="-1502.607" width="16.14" height="17.934"/>
								</defs>
								<clipPath id="SVGID_12_">
									<use xlink:href="#SVGID_11_"  overflow="visible"/>
								</clipPath>
								<g transform="matrix(1 0 0 1 0 0)" clip-path="url(#SVGID_12_)" enable-background="new    ">
									
										<image overflow="visible" width="36" height="40" xlink:href="5E2A77FD0720A0BD.png"  transform="matrix(0.6375 0 0 0.6375 -332.272 -1506.3899)">
									</image>
								</g>
							</g>
							<path fill-opacity="0" d="M-324.115-1474.771v-5.939"/>
							<path fill="none" stroke="#595959" stroke-linejoin="round" stroke-miterlimit="10" d="M-324.115-1474.771v-5.939"/>
							<path d="M-557.081-1313.084L-557.081-1313.084c0-4.21,3.413-7.623,7.623-7.623l0,0c2.022,0,3.961,0.803,5.391,2.233
								c1.43,1.429,2.233,3.369,2.233,5.39l0,0c0,4.21-3.413,7.622-7.623,7.622l0,0
								C-553.669-1305.462-557.081-1308.874-557.081-1313.084z"/>
							<path fill="none" stroke="#000000" stroke-linejoin="round" stroke-miterlimit="10" d="M-557.081-1313.084L-557.081-1313.084
								c0-4.21,3.413-7.623,7.623-7.623l0,0c2.022,0,3.961,0.803,5.391,2.233c1.43,1.429,2.233,3.369,2.233,5.39l0,0
								c0,4.21-3.413,7.622-7.623,7.622l0,0C-553.669-1305.462-557.081-1308.874-557.081-1313.084z"/>
							<path d="M-522.41-1313.084L-522.41-1313.084c0-4.21,3.412-7.623,7.623-7.623l0,0c2.022,0,3.961,0.803,5.391,2.233
								c1.43,1.429,2.233,3.369,2.233,5.39l0,0c0,4.21-3.413,7.622-7.623,7.622l0,0
								C-518.997-1305.462-522.41-1308.874-522.41-1313.084z"/>
							<path fill="none" stroke="#000000" stroke-linejoin="round" stroke-miterlimit="10" d="M-522.41-1313.084L-522.41-1313.084
								c0-4.21,3.412-7.623,7.623-7.623l0,0c2.022,0,3.961,0.803,5.391,2.233c1.43,1.429,2.233,3.369,2.233,5.39l0,0
								c0,4.21-3.413,7.622-7.623,7.622l0,0C-518.997-1305.462-522.41-1308.874-522.41-1313.084z"/>
							<path d="M-487.738-1313.084L-487.738-1313.084c0-4.21,3.412-7.623,7.623-7.623l0,0c2.022,0,3.961,0.803,5.391,2.233
								c1.43,1.429,2.233,3.369,2.233,5.39l0,0c0,4.21-3.413,7.622-7.623,7.622l0,0
								C-484.326-1305.462-487.738-1308.874-487.738-1313.084z"/>
							<path fill="none" stroke="#000000" stroke-linejoin="round" stroke-miterlimit="10" d="M-487.738-1313.084L-487.738-1313.084
								c0-4.21,3.412-7.623,7.623-7.623l0,0c2.022,0,3.961,0.803,5.391,2.233c1.43,1.429,2.233,3.369,2.233,5.39l0,0
								c0,4.21-3.413,7.622-7.623,7.622l0,0C-484.326-1305.462-487.738-1308.874-487.738-1313.084z"/>
							<path d="M-453.067-1313.084L-453.067-1313.084c0-4.21,3.412-7.623,7.623-7.623l0,0c2.022,0,3.961,0.803,5.391,2.233
								c1.43,1.429,2.232,3.369,2.232,5.39l0,0c0,4.21-3.413,7.622-7.623,7.622l0,0
								C-449.654-1305.462-453.067-1308.874-453.067-1313.084z"/>
							<path fill="none" stroke="#000000" stroke-linejoin="round" stroke-miterlimit="10" d="M-453.067-1313.084L-453.067-1313.084
								c0-4.21,3.412-7.623,7.623-7.623l0,0c2.022,0,3.961,0.803,5.391,2.233c1.43,1.429,2.232,3.369,2.232,5.39l0,0
								c0,4.21-3.413,7.622-7.623,7.622l0,0C-449.654-1305.462-453.067-1308.874-453.067-1313.084z"/>
							<path d="M-418.395-1313.084L-418.395-1313.084c0-4.21,3.413-7.623,7.623-7.623l0,0c2.022,0,3.961,0.803,5.391,2.233
								c1.43,1.429,2.232,3.369,2.232,5.39l0,0c0,4.21-3.413,7.622-7.623,7.622l0,0
								C-414.983-1305.462-418.395-1308.874-418.395-1313.084z"/>
							<path fill="none" stroke="#000000" stroke-linejoin="round" stroke-miterlimit="10" d="M-418.395-1313.084L-418.395-1313.084
								c0-4.21,3.413-7.623,7.623-7.623l0,0c2.022,0,3.961,0.803,5.391,2.233c1.43,1.429,2.232,3.369,2.232,5.39l0,0
								c0,4.21-3.413,7.622-7.623,7.622l0,0C-414.983-1305.462-418.395-1308.874-418.395-1313.084z"/>
							<path d="M-629.6-1466.189L-629.6-1466.189c0-4.21,3.412-7.623,7.623-7.623l0,0c2.022,0,3.961,0.804,5.391,2.233
								c1.43,1.43,2.233,3.369,2.233,5.391l0,0c0,4.21-3.413,7.623-7.623,7.623l0,0
								C-626.187-1458.566-629.6-1461.979-629.6-1466.189z"/>
							<path fill="none" stroke="#000000" stroke-linejoin="round" stroke-miterlimit="10" d="M-629.6-1466.189L-629.6-1466.189
								c0-4.21,3.412-7.623,7.623-7.623l0,0c2.022,0,3.961,0.804,5.391,2.233c1.43,1.43,2.233,3.369,2.233,5.391l0,0
								c0,4.21-3.413,7.623-7.623,7.623l0,0C-626.187-1458.566-629.6-1461.979-629.6-1466.189z"/>
							<path d="M-593.34-1466.189L-593.34-1466.189c0-4.21,3.412-7.623,7.623-7.623l0,0c2.022,0,3.961,0.804,5.391,2.233
								c1.43,1.43,2.233,3.369,2.233,5.391l0,0c0,4.21-3.413,7.623-7.623,7.623l0,0
								C-589.928-1458.566-593.34-1461.979-593.34-1466.189z"/>
							<path fill="none" stroke="#000000" stroke-linejoin="round" stroke-miterlimit="10" d="M-593.34-1466.189L-593.34-1466.189
								c0-4.21,3.412-7.623,7.623-7.623l0,0c2.022,0,3.961,0.804,5.391,2.233c1.43,1.43,2.233,3.369,2.233,5.391l0,0
								c0,4.21-3.413,7.623-7.623,7.623l0,0C-589.928-1458.566-593.34-1461.979-593.34-1466.189z"/>
							<path d="M-557.081-1466.189L-557.081-1466.189c0-4.21,3.413-7.623,7.623-7.623l0,0c2.022,0,3.961,0.804,5.391,2.233
								c1.43,1.43,2.233,3.369,2.233,5.391l0,0c0,4.21-3.413,7.623-7.623,7.623l0,0
								C-553.669-1458.566-557.081-1461.979-557.081-1466.189z"/>
							<path fill="none" stroke="#000000" stroke-linejoin="round" stroke-miterlimit="10" d="M-557.081-1466.189L-557.081-1466.189
								c0-4.21,3.413-7.623,7.623-7.623l0,0c2.022,0,3.961,0.804,5.391,2.233c1.43,1.43,2.233,3.369,2.233,5.391l0,0
								c0,4.21-3.413,7.623-7.623,7.623l0,0C-553.669-1458.566-557.081-1461.979-557.081-1466.189z"/>
							<path d="M-520.822-1466.189L-520.822-1466.189c0-4.21,3.413-7.623,7.623-7.623l0,0c2.022,0,3.961,0.804,5.391,2.233
								c1.43,1.43,2.233,3.369,2.233,5.391l0,0c0,4.21-3.413,7.623-7.623,7.623l0,0
								C-517.409-1458.566-520.822-1461.979-520.822-1466.189z"/>
							<path fill="none" stroke="#000000" stroke-linejoin="round" stroke-miterlimit="10" d="M-520.822-1466.189L-520.822-1466.189
								c0-4.21,3.413-7.623,7.623-7.623l0,0c2.022,0,3.961,0.804,5.391,2.233c1.43,1.43,2.233,3.369,2.233,5.391l0,0
								c0,4.21-3.413,7.623-7.623,7.623l0,0C-517.409-1458.566-520.822-1461.979-520.822-1466.189z"/>
							<path d="M-440.711-1466.189L-440.711-1466.189c0-4.21,3.413-7.623,7.623-7.623l0,0c2.022,0,3.961,0.804,5.391,2.233
								c1.43,1.43,2.232,3.369,2.232,5.391l0,0c0,4.21-3.413,7.623-7.623,7.623l0,0
								C-437.298-1458.566-440.711-1461.979-440.711-1466.189z"/>
							<path fill="none" stroke="#000000" stroke-linejoin="round" stroke-miterlimit="10" d="M-440.711-1466.189L-440.711-1466.189
								c0-4.21,3.413-7.623,7.623-7.623l0,0c2.022,0,3.961,0.804,5.391,2.233c1.43,1.43,2.232,3.369,2.232,5.391l0,0
								c0,4.21-3.413,7.623-7.623,7.623l0,0C-437.298-1458.566-440.711-1461.979-440.711-1466.189z"/>
							<path d="M-404.451-1466.189L-404.451-1466.189c0-4.21,3.413-7.623,7.623-7.623l0,0c2.022,0,3.961,0.804,5.391,2.233
								c1.43,1.43,2.232,3.369,2.232,5.391l0,0c0,4.21-3.413,7.623-7.623,7.623l0,0
								C-401.039-1458.566-404.451-1461.979-404.451-1466.189z"/>
							<path fill="none" stroke="#000000" stroke-linejoin="round" stroke-miterlimit="10" d="M-404.451-1466.189L-404.451-1466.189
								c0-4.21,3.413-7.623,7.623-7.623l0,0c2.022,0,3.961,0.804,5.391,2.233c1.43,1.43,2.232,3.369,2.232,5.391l0,0
								c0,4.21-3.413,7.623-7.623,7.623l0,0C-401.039-1458.566-404.451-1461.979-404.451-1466.189z"/>
							<path d="M-368.192-1466.189L-368.192-1466.189c0-4.21,3.413-7.623,7.623-7.623l0,0c2.022,0,3.961,0.804,5.391,2.233
								c1.43,1.43,2.232,3.369,2.232,5.391l0,0c0,4.21-3.413,7.623-7.623,7.623l0,0
								C-364.779-1458.566-368.192-1461.979-368.192-1466.189z"/>
							<path fill="none" stroke="#000000" stroke-linejoin="round" stroke-miterlimit="10" d="M-368.192-1466.189L-368.192-1466.189
								c0-4.21,3.413-7.623,7.623-7.623l0,0c2.022,0,3.961,0.804,5.391,2.233c1.43,1.43,2.232,3.369,2.232,5.391l0,0
								c0,4.21-3.413,7.623-7.623,7.623l0,0C-364.779-1458.566-368.192-1461.979-368.192-1466.189z"/>
							<path d="M-331.932-1466.189L-331.932-1466.189c0-4.21,3.413-7.623,7.623-7.623l0,0c2.022,0,3.961,0.804,5.391,2.233
								c1.43,1.43,2.232,3.369,2.232,5.391l0,0c0,4.21-3.413,7.623-7.623,7.623l0,0
								C-328.52-1458.566-331.932-1461.979-331.932-1466.189z"/>
							<path fill="none" stroke="#000000" stroke-linejoin="round" stroke-miterlimit="10" d="M-331.932-1466.189L-331.932-1466.189
								c0-4.21,3.413-7.623,7.623-7.623l0,0c2.022,0,3.961,0.804,5.391,2.233c1.43,1.43,2.232,3.369,2.232,5.391l0,0
								c0,4.21-3.413,7.623-7.623,7.623l0,0C-328.52-1458.566-331.932-1461.979-331.932-1466.189z"/>
							<path d="M-383.724-1313.084L-383.724-1313.084c0-4.21,3.413-7.623,7.623-7.623l0,0c2.022,0,3.961,0.803,5.391,2.233
								c1.43,1.429,2.232,3.369,2.232,5.39l0,0c0,4.21-3.413,7.622-7.623,7.622l0,0
								C-380.311-1305.462-383.724-1308.874-383.724-1313.084z"/>
							<path fill="none" stroke="#000000" stroke-linejoin="round" stroke-miterlimit="10" d="M-383.724-1313.084L-383.724-1313.084
								c0-4.21,3.413-7.623,7.623-7.623l0,0c2.022,0,3.961,0.803,5.391,2.233c1.43,1.429,2.232,3.369,2.232,5.39l0,0
								c0,4.21-3.413,7.622-7.623,7.622l0,0C-380.311-1305.462-383.724-1308.874-383.724-1313.084z"/>
							<path d="M-576.011-1601.365L-576.011-1601.365c0-4.209,3.413-7.623,7.623-7.623l0,0c2.022,0,3.96,0.803,5.39,2.233
								c1.43,1.429,2.233,3.368,2.233,5.39l0,0c0,4.21-3.412,7.623-7.623,7.623l0,0
								C-572.597-1593.741-576.011-1597.155-576.011-1601.365z"/>
							<path fill="none" stroke="#000000" stroke-linejoin="round" stroke-miterlimit="10" d="M-576.011-1601.365L-576.011-1601.365
								c0-4.209,3.413-7.623,7.623-7.623l0,0c2.022,0,3.96,0.803,5.39,2.233c1.43,1.429,2.233,3.368,2.233,5.39l0,0
								c0,4.21-3.412,7.623-7.623,7.623l0,0C-572.597-1593.741-576.011-1597.155-576.011-1601.365z"/>
							<path d="M-388.282-1602.392L-388.282-1602.392c0-4.21,3.413-7.623,7.623-7.623l0,0c2.022,0,3.961,0.803,5.391,2.232
								c1.43,1.43,2.233,3.369,2.233,5.391l0,0c0,4.21-3.413,7.623-7.623,7.623l0,0
								C-384.869-1594.77-388.282-1598.182-388.282-1602.392z"/>
							<path fill="none" stroke="#000000" stroke-linejoin="round" stroke-miterlimit="10" d="M-388.282-1602.392L-388.282-1602.392
								c0-4.21,3.413-7.623,7.623-7.623l0,0c2.022,0,3.961,0.803,5.391,2.232c1.43,1.43,2.233,3.369,2.233,5.391l0,0
								c0,4.21-3.413,7.623-7.623,7.623l0,0C-384.869-1594.77-388.282-1598.182-388.282-1602.392z"/>
							<path fill-opacity="0" d="M-549.458-1320.708l152.632-137.868"/>
							<path fill="none" stroke="#595959" stroke-linejoin="round" stroke-miterlimit="10" stroke-dasharray="1,3" d="
								M-549.458-1320.708l152.632-137.868"/>
							<path fill-opacity="0" d="M-514.787-1320.708l81.712-137.868"/>
							<path fill="none" stroke="#595959" stroke-linejoin="round" stroke-miterlimit="10" d="M-514.787-1320.708l81.712-137.868"/>
							<path fill-opacity="0" d="M-480.115-1320.708l47.023-137.868"/>
							<path fill="none" stroke="#595959" stroke-linejoin="round" stroke-miterlimit="10" d="M-480.115-1320.708l47.023-137.868"/>
							<path fill-opacity="0" d="M-450.834-1318.475l17.758-140.095"/>
							<path fill="none" stroke="#595959" stroke-linejoin="round" stroke-miterlimit="10" d="M-450.834-1318.475l17.758-140.095"/>
							<path fill-opacity="0" d="M-410.772-1320.708l-22.327-137.868"/>
							<path fill="none" stroke="#595959" stroke-linejoin="round" stroke-miterlimit="10" d="M-410.772-1320.708l-22.327-137.868"
								/>
							<path fill-opacity="0" d="M-376.101-1320.708l-56.987-137.868"/>
							<path fill="none" stroke="#595959" stroke-linejoin="round" stroke-miterlimit="10" d="M-376.101-1320.708l-56.987-137.868"
								/>
							<path fill-opacity="0" d="M-630.012-1506.852h22.95v25.5h-22.95V-1506.852z"/>
							<g>
								<g transform="matrix(0.7032661417322834 0.0 0.0 0.7032808398950131 71.66666666666667 239.16272965879264)">
									<defs>
										<rect id="SVGID_13_" x="-989.495" y="-2473.507" width="16.14" height="17.934"/>
									</defs>
									<clipPath id="SVGID_14_">
										<use xlink:href="#SVGID_13_"  overflow="visible"/>
									</clipPath>
									<g transform="matrix(1 0 0 1 1.220703e-04 -2.441406e-04)" clip-path="url(#SVGID_14_)" enable-background="new    ">
										
											<image overflow="visible" width="36" height="40" xlink:href="5E2A77FD0720A0B8.png"  transform="matrix(0.9065 0 0 0.9065 -997.7432 -2482.6709)">
										</image>
									</g>
								</g>
								<path fill-opacity="0" d="M-946.184-2482.67h32.634v36.259h-32.634V-2482.67z"/>
								<g>
									<g transform="matrix(0.7032661417322834 0.0 0.0 0.7032808398950131 111.66666666666667 239.16272965879264)">
										<defs>
											<rect id="SVGID_15_" x="-1489.065" y="-3853.381" width="16.14" height="17.934"/>
										</defs>
										<clipPath id="SVGID_16_">
											<use xlink:href="#SVGID_15_"  overflow="visible"/>
										</clipPath>
										<g clip-path="url(#SVGID_16_)" enable-background="new    ">
											
												<image overflow="visible" width="36" height="40" xlink:href="5E2A77FD0720A0B9.png"  transform="matrix(1.289 0 0 1.2889 -1504.1979 -3870.1936)">
											</image>
										</g>
									</g>
									<path fill-opacity="0" d="M-1430.884-3870.192h46.403v51.556h-46.403V-3870.192z"/>
									<g>
										<g transform="matrix(0.7032661417322834 0.0 0.0 0.7032808398950131 151.66666666666666 239.16272965879264)">
											<defs>
												<rect id="SVGID_17_" x="-2225.365" y="-5815.433" width="16.14" height="17.934"/>
											</defs>
											<clipPath id="SVGID_18_">
												<use xlink:href="#SVGID_17_"  overflow="visible"/>
											</clipPath>
											<g clip-path="url(#SVGID_18_)" enable-background="new    ">
												
													<image overflow="visible" width="36" height="40" xlink:href="5E2A77FD0720A0A8.png"  transform="matrix(1.8328 0 0 1.8327 -2250.2886 -5843.1221)">
												</image>
											</g>
										</g>
										<path fill-opacity="0" d="M-2146.04-5843.12h65.982v73.308h-65.982V-5843.12z"/>
										<g>
											<g transform="matrix(0.7032661417322834 0.0 0.0 0.7032808398950131 191.66666666666666 239.16272965879264)">
												<defs>
													<rect id="SVGID_19_" x="-3285.23" y="-8605.288" width="16.14" height="17.934"/>
												</defs>
												<clipPath id="SVGID_20_">
													<use xlink:href="#SVGID_19_"  overflow="visible"/>
												</clipPath>
												<g transform="matrix(1 0 0 1 2.441406e-04 0)" clip-path="url(#SVGID_20_)" enable-background="new    ">
													
														<image overflow="visible" width="36" height="40" xlink:href="5E2A77FD0720A0A9.png"  transform="matrix(2.6062 0 0 2.6059 -3324.0742 -8648.4424)">
													</image>
												</g>
											</g>
											<path fill-opacity="0" d="M-2996.277-8646.553h93.82v104.237h-93.82V-8646.553z"/>
											<g>
												<g transform="matrix(0.7032661417322834 0.0 0.0 0.7032808398950131 280.12073490813646 239.67191601049868)">
													<defs>
														<rect id="SVGID_21_" x="-4600.198" y="-12570.242" width="16.14" height="17.934"/>
													</defs>
													<clipPath id="SVGID_22_">
														<use xlink:href="#SVGID_21_"  overflow="visible"/>
													</clipPath>
													<g transform="matrix(1 0 0 1 -4.882812e-04 9.765625e-04)" clip-path="url(#SVGID_22_)" enable-background="new    ">
														
															<image overflow="visible" width="36" height="40" xlink:href="9C23579207B739CE.png"  transform="matrix(3.7058 0 0 3.7054 -4658.8271 -12635.3828)">
														</image>
													</g>
												</g>
												<path fill-opacity="0" d="M-4448.055-12635.383h133.406v148.215h-133.406V-12635.383z"/>
												<g>
													<g transform="matrix(0.7032661417322834 0.0 0.0 0.7032808398950131 320.12073490813646 239.67191601049868)">
														<defs>
															<rect id="SVGID_23_" x="-6693.267" y="-18210.721" width="16.14" height="17.934"/>
														</defs>
														<clipPath id="SVGID_24_">
															<use xlink:href="#SVGID_23_"  overflow="visible"/>
														</clipPath>
														<g clip-path="url(#SVGID_24_)" enable-background="new    ">
															
																<image overflow="visible" width="36" height="40" xlink:href="9C23579207B739CA.png"  transform="matrix(5.2694 0 0 5.2687 -6780.0391 -18307.1289)">
															</image>
														</g>
													</g>
													<path fill-opacity="0" d="M-6480.334-18307.129h189.695v210.75h-189.695V-18307.129z"/>
													<g>
														<g transform="matrix(0.7032661417322834 0.0 0.0 0.7032808398950131 360.12073490813646 239.67191601049868)">
															<defs>
																<rect id="SVGID_25_" x="-9599.898" y="-26230.957" width="16.14" height="17.934"/>
															</defs>
															<clipPath id="SVGID_26_">
																<use xlink:href="#SVGID_25_"  overflow="visible"/>
															</clipPath>
															<g transform="matrix(1 0 0 1 9.765625e-04 -0.002)" clip-path="url(#SVGID_26_)" enable-background="new    ">
																
																	<image overflow="visible" width="36" height="40" xlink:href="9C23579207B739C9.png"  transform="matrix(7.4928 0 0 7.4917 -9726.6885 -26371.8242)">
																</image>
															</g>
														</g>
														<path fill-opacity="0" d="M-12256.037-26881.91L-12256.037-26881.91c0-104.787,84.959-189.73,189.763-189.73l0,0
															c50.334,0,98.595,19.99,134.182,55.562c35.588,35.59,55.581,83.844,55.581,134.168l0,0
															c0,104.777-84.958,189.73-189.763,189.73l0,0C-12171.078-26692.18-12256.037-26777.133-12256.037-26881.91z"/>
														<path fill="none" stroke="#595959" stroke-linejoin="round" stroke-miterlimit="10" d="M-12256.037-26881.91
															L-12256.037-26881.91c0-104.787,84.959-189.73,189.763-189.73l0,0c50.334,0,98.595,19.99,134.182,55.562
															c35.588,35.59,55.581,83.844,55.581,134.168l0,0c0,104.777-84.958,189.73-189.763,189.73l0,0
															C-12171.078-26692.18-12256.037-26777.133-12256.037-26881.91z"/>
														<path fill-opacity="0" d="M-12218.809-27002.32h305.061v240.805h-305.061V-27002.32z"/>
														<g>
															<g transform="matrix(0.37674409448818896 0.0 0.0 0.37677165354330716 126.2134713910761 180.48381259842517)">
																<defs>
																	<rect id="SVGID_27_" x="-32371.932" y="-71834.203" width="18.253" height="14.411"/>
																</defs>
																<clipPath id="SVGID_28_">
																	<use xlink:href="#SVGID_27_"  overflow="visible"/>
																</clipPath>
																<g transform="matrix(1 0 0 1 -0.002 0)" clip-path="url(#SVGID_28_)" enable-background="new    ">
																	
																		<image overflow="visible" width="76" height="60" xlink:href="9C23579207B739C6.png"  transform="matrix(10.6543 0 0 10.6524 -32767.6699 -72146.5703)">
																	</image>
																</g>
															</g>
															<path fill-opacity="0" d="M-26984.277-71826.984L-26984.277-71826.984c0-278.117,225.506-503.562,503.691-503.562
																l0,0c133.578,0,261.699,53.047,356.16,147.469c94.461,94.461,147.529,222.531,147.529,356.094l0,0
																c0,278.094-225.506,503.57-503.689,503.57l0,0C-26758.771-71323.414-26984.277-71548.891-26984.277-71826.984z"/>
															<path fill="none" stroke="#595959" stroke-linejoin="round" stroke-miterlimit="10" d="M-26984.277-71826.984
																L-26984.277-71826.984c0-278.117,225.506-503.562,503.691-503.562l0,0c133.578,0,261.699,53.047,356.16,147.469
																c94.461,94.461,147.529,222.531,147.529,356.094l0,0c0,278.094-225.506,503.57-503.689,503.57l0,0
																C-26758.771-71323.414-26984.277-71548.891-26984.277-71826.984z"/>
															<path fill-opacity="0" d="M-26885.465-72146.57h809.732v639.133h-809.732V-72146.57z"/>
															<g>
																<g transform="matrix(0.37674409448818896 0.0 0.0 0.37677165354330716 334.2134713910761 180.48381259842517)">
																	<defs>
																		<rect id="SVGID_29_" x="-71184.281" y="-191124.094" width="18.253" height="14.411"/>
																	</defs>
																	<clipPath id="SVGID_30_">
																		<use xlink:href="#SVGID_29_"  overflow="visible"/>
																	</clipPath>
																	<g transform="matrix(1 0 0 1 0 0.0156)" clip-path="url(#SVGID_30_)" enable-background="new    ">
																		
																			<image overflow="visible" width="76" height="60" xlink:href="9C23579207B739D9.png"  transform="matrix(28.2798 0 0 28.2729 -72249.7344 -191965.0625)">
																		</image>
																	</g>
																</g>
																<path fill-opacity="0" d="M-75649.398-187324.891l4465.992-2417.828"/>
																<path fill="none" stroke="#595959" stroke-linejoin="round" stroke-miterlimit="10" d="M-75649.398-187324.891
																	l4465.992-2417.828"/>
																<path fill-opacity="0" d="M-72703.016-187290.812l1591.133-2450.922"/>
																<path fill="none" stroke="#595959" stroke-linejoin="round" stroke-miterlimit="10" d="M-72703.016-187290.812
																	l1591.133-2450.922"/>
																<path fill-opacity="0" d="M-69773.547-187273.859l-1269.57-2538.344"/>
																<path fill="none" stroke="#595959" stroke-linejoin="round" stroke-miterlimit="10" d="M-69773.547-187273.859
																	l-1269.57-2538.344"/>
																<path fill-opacity="0" d="M-66724.883-187239.781l-4248.492-2500.578"/>
																<path fill="none" stroke="#595959" stroke-linejoin="round" stroke-miterlimit="10" d="M-66724.883-187239.781
																	l-4248.492-2500.578"/>
																<path fill-opacity="0" d="M-71255.328-192483.719l2.359-2233.5"/>
																<path fill="none" stroke="#595959" stroke-linejoin="round" stroke-miterlimit="10" d="M-71255.328-192483.719
																	l2.359-2233.5"/>
																<path fill-opacity="0" d="M-75739.836-184906.047v-560.156"/>
																<path fill="none" stroke="#595959" stroke-linejoin="round" stroke-miterlimit="10" d="M-75739.836-184906.047
																	v-560.156"/>
																<path fill-opacity="0" d="M-72655.531-184836.156v-491.578"/>
																<path fill="none" stroke="#595959" stroke-linejoin="round" stroke-miterlimit="10" d="M-72655.531-184836.156
																	v-491.578"/>
																<path fill-opacity="0" d="M-69641.133-184836.156v-560.156"/>
																<path fill="none" stroke="#595959" stroke-linejoin="round" stroke-miterlimit="10" d="M-69641.133-184836.156
																	v-560.156"/>
																<path fill-opacity="0" d="M-85287.125-172106.5l-6005.094-11458.062"/>
																<path fill="none" stroke="#595959" stroke-linejoin="round" stroke-miterlimit="10" stroke-dasharray="1,3" d="
																	M-85287.125-172106.5l-6005.094-11458.062"/>
																<path fill-opacity="0" d="M-82416.977-172106.5l-8875.242-11458.062"/>
																<path fill="none" stroke="#595959" stroke-linejoin="round" stroke-miterlimit="10" stroke-dasharray="1,3" d="
																	M-82416.977-172106.5l-8875.242-11458.062"/>
																<path fill-opacity="0" d="M-79545.109-172107.188l3893.875-11413.125"/>
																<path fill="none" stroke="#595959" stroke-linejoin="round" stroke-miterlimit="10" d="M-79545.109-172107.188
																	l3893.875-11413.125"/>
																<path fill-opacity="0" d="M-77121.125-171922.234l-14171.094-11642.328"/>
																<path fill="none" stroke="#595959" stroke-linejoin="round" stroke-miterlimit="10" stroke-dasharray="1,3" d="
																	M-77121.125-171922.234l-14171.094-11642.328"/>
																<path fill-opacity="0" d="M-73804.141-172106.5l-17488.078-11458.062"/>
																<path fill="none" stroke="#595959" stroke-linejoin="round" stroke-miterlimit="10" stroke-dasharray="1,3" d="
																	M-73804.141-172106.5l-17488.078-11458.062"/>
																<path fill-opacity="0" d="M-70931.641-172106.5l-20360.578-11458.062"/>
																<path fill="none" stroke="#595959" stroke-linejoin="round" stroke-miterlimit="10" stroke-dasharray="1,3" d="
																	M-70931.641-172106.5l-20360.578-11458.062"/>
																<path fill-opacity="0" d="M-85287.125-172243.641l-3002.547-11320.922"/>
																<path fill="none" stroke="#595959" stroke-linejoin="round" stroke-miterlimit="10" stroke-dasharray="1,3" d="
																	M-85287.125-172243.641l-3002.547-11320.922"/>
																<path fill-opacity="0" d="M-82416.977-172243.641l-5872.695-11320.922"/>
																<path fill="none" stroke="#595959" stroke-linejoin="round" stroke-miterlimit="10" stroke-dasharray="1,3" d="
																	M-82416.977-172243.641l-5872.695-11320.922"/>
																<path fill-opacity="0" d="M-79544.422-172243.641l-8745.25-11320.922"/>
																<path fill="none" stroke="#595959" stroke-linejoin="round" stroke-miterlimit="10" stroke-dasharray="1,3" d="
																	M-79544.422-172243.641l-8745.25-11320.922"/>
																<path fill-opacity="0" d="M-77121.125-172059.25l-11168.547-11505.312"/>
																<path fill="none" stroke="#595959" stroke-linejoin="round" stroke-miterlimit="10" stroke-dasharray="1,3" d="
																	M-77121.125-172059.25l-11168.547-11505.312"/>
																<path fill-opacity="0" d="M-73801.781-172243.641l-14487.891-11320.922"/>
																<path fill="none" stroke="#595959" stroke-linejoin="round" stroke-miterlimit="10" stroke-dasharray="1,3" d="
																	M-73801.781-172243.641l-14487.891-11320.922"/>
																<path fill-opacity="0" d="M-70931.641-172243.641l-17358.031-11320.922"/>
																<path fill="none" stroke="#595959" stroke-linejoin="round" stroke-miterlimit="10" stroke-dasharray="1,3" d="
																	M-70931.641-172243.641l-17358.031-11320.922"/>
																<path fill-opacity="0" d="M-85287.125-172243.641v-11320.922"/>
																<path fill="none" stroke="#595959" stroke-linejoin="round" stroke-miterlimit="10" stroke-dasharray="1,3" d="
																	M-85287.125-172243.641v-11320.922"/>
																<path fill-opacity="0" d="M-82416.977-172243.641l-2870.148-11320.922"/>
																<path fill="none" stroke="#595959" stroke-linejoin="round" stroke-miterlimit="10" stroke-dasharray="1,3" d="
																	M-82416.977-172243.641l-2870.148-11320.922"/>
																<path fill-opacity="0" d="M-79544.422-172243.641l-5742.703-11320.922"/>
																<path fill="none" stroke="#595959" stroke-linejoin="round" stroke-miterlimit="10" stroke-dasharray="1,3" d="
																	M-79544.422-172243.641l-5742.703-11320.922"/>
																<path fill-opacity="0" d="M-77121.125-172059.25l-8166-11505.312"/>
																<path fill="none" stroke="#595959" stroke-linejoin="round" stroke-miterlimit="10" stroke-dasharray="1,3" d="
																	M-77121.125-172059.25l-8166-11505.312"/>
																<path fill-opacity="0" d="M-73801.781-172243.641l-11485.344-11320.922"/>
																<path fill="none" stroke="#595959" stroke-linejoin="round" stroke-miterlimit="10" stroke-dasharray="1,3" d="
																	M-73801.781-172243.641l-11485.344-11320.922"/>
																<path fill-opacity="0" d="M-70931.641-172243.641l-14355.484-11320.922"/>
																<path fill="none" stroke="#595959" stroke-linejoin="round" stroke-miterlimit="10" stroke-dasharray="1,3" d="
																	M-70931.641-172243.641l-14355.484-11320.922"/>
																<path fill-opacity="0" d="M-85287.125-172130.188l3002.555-11434.375"/>
																<path fill="none" stroke="#595959" stroke-linejoin="round" stroke-miterlimit="10" stroke-dasharray="1,3" d="
																	M-85287.125-172130.188l3002.555-11434.375"/>
																<path fill-opacity="0" d="M-82416.977-172130.188l132.406-11434.375"/>
																<path fill="none" stroke="#595959" stroke-linejoin="round" stroke-miterlimit="10" stroke-dasharray="1,3" d="
																	M-82416.977-172130.188l132.406-11434.375"/>
																<path fill-opacity="0" d="M-79544.422-172130.188l-2740.148-11434.375"/>
																<path fill="none" stroke="#595959" stroke-linejoin="round" stroke-miterlimit="10" stroke-dasharray="1,3" d="
																	M-79544.422-172130.188l-2740.148-11434.375"/>
																<path fill-opacity="0" d="M-77121.125-171943.5l-5163.445-11621.062"/>
																<path fill="none" stroke="#595959" stroke-linejoin="round" stroke-miterlimit="10" stroke-dasharray="1,3" d="
																	M-77121.125-171943.5l-5163.445-11621.062"/>
																<path fill-opacity="0" d="M-73801.781-172130.188l-8482.789-11434.375"/>
																<path fill="none" stroke="#595959" stroke-linejoin="round" stroke-miterlimit="10" stroke-dasharray="1,3" d="
																	M-73801.781-172130.188l-8482.789-11434.375"/>
																<path fill-opacity="0" d="M-70931.641-172130.188l-11352.93-11434.375"/>
																<path fill="none" stroke="#595959" stroke-linejoin="round" stroke-miterlimit="10" stroke-dasharray="1,3" d="
																	M-70931.641-172130.188l-11352.93-11434.375"/>
																<path fill-opacity="0" d="M-85287.125-172129.141l9636.523-11413.234"/>
																<path fill="none" stroke="#595959" stroke-linejoin="round" stroke-miterlimit="10" d="M-85287.125-172129.141
																	l9636.523-11413.234"/>
																<path fill-opacity="0" d="M-82417.148-172130.188l9768.922-11434.375"/>
																<path fill="none" stroke="#595959" stroke-linejoin="round" stroke-miterlimit="10" stroke-dasharray="1,3" d="
																	M-82417.148-172130.188l9768.922-11434.375"/>
																<path fill-opacity="0" d="M-79544.656-172130.188l6896.43-11434.375"/>
																<path fill="none" stroke="#595959" stroke-linejoin="round" stroke-miterlimit="10" stroke-dasharray="1,3" d="
																	M-79544.656-172130.188l6896.43-11434.375"/>
																<path fill-opacity="0" d="M-77121.297-171943.5l4473.07-11621.062"/>
																<path fill="none" stroke="#595959" stroke-linejoin="round" stroke-miterlimit="10" stroke-dasharray="1,3" d="
																	M-77121.297-171943.5l4473.07-11621.062"/>
																<path fill-opacity="0" d="M-73801.953-172130.188l1153.727-11434.375"/>
																<path fill="none" stroke="#595959" stroke-linejoin="round" stroke-miterlimit="10" stroke-dasharray="1,3" d="
																	M-73801.953-172130.188l1153.727-11434.375"/>
																<path fill-opacity="0" d="M-70931.812-172130.188l-1716.414-11434.375"/>
																<path fill="none" stroke="#595959" stroke-linejoin="round" stroke-miterlimit="10" stroke-dasharray="1,3" d="
																	M-70931.812-172130.188l-1716.414-11434.375"/>
																<path fill-opacity="0" d="M-85287.297-172198.688l15641.625-11365.875"/>
																<path fill="none" stroke="#595959" stroke-linejoin="round" stroke-miterlimit="10" stroke-dasharray="1,3" d="
																	M-85287.297-172198.688l15641.625-11365.875"/>
																<path fill-opacity="0" d="M-82417.148-172198.688l12771.477-11365.875"/>
																<path fill="none" stroke="#595959" stroke-linejoin="round" stroke-miterlimit="10" stroke-dasharray="1,3" d="
																	M-82417.148-172198.688l12771.477-11365.875"/>
																<path fill-opacity="0" d="M-79544.656-172198.688l9898.984-11365.875"/>
																<path fill="none" stroke="#595959" stroke-linejoin="round" stroke-miterlimit="10" stroke-dasharray="1,3" d="
																	M-79544.656-172198.688l9898.984-11365.875"/>
																<path fill-opacity="0" d="M-77121.297-172014.422l7475.625-11550.141"/>
																<path fill="none" stroke="#595959" stroke-linejoin="round" stroke-miterlimit="10" stroke-dasharray="1,3" d="
																	M-77121.297-172014.422l7475.625-11550.141"/>
																<path fill-opacity="0" d="M-73801.953-172198.688l4156.281-11365.875"/>
																<path fill="none" stroke="#595959" stroke-linejoin="round" stroke-miterlimit="10" stroke-dasharray="1,3" d="
																	M-73801.953-172198.688l4156.281-11365.875"/>
																<path fill-opacity="0" d="M-70931.812-172198.688l1286.141-11365.875"/>
																<path fill="none" stroke="#595959" stroke-linejoin="round" stroke-miterlimit="10" stroke-dasharray="1,3" d="
																	M-70931.812-172198.688l1286.141-11365.875"/>
																<path fill-opacity="0" d="M-85287.297-172130.188l18644.172-11434.375"/>
																<path fill="none" stroke="#595959" stroke-linejoin="round" stroke-miterlimit="10" stroke-dasharray="1,3" d="
																	M-85287.297-172130.188l18644.172-11434.375"/>
																<path fill-opacity="0" d="M-82417.148-172130.188l15774.023-11434.375"/>
																<path fill="none" stroke="#595959" stroke-linejoin="round" stroke-miterlimit="10" stroke-dasharray="1,3" d="
																	M-82417.148-172130.188l15774.023-11434.375"/>
																<path fill-opacity="0" d="M-79544.656-172130.188l12901.531-11434.375"/>
																<path fill="none" stroke="#595959" stroke-linejoin="round" stroke-miterlimit="10" stroke-dasharray="1,3" d="
																	M-79544.656-172130.188l12901.531-11434.375"/>
																<path fill-opacity="0" d="M-77121.297-171943.5l10478.172-11621.062"/>
																<path fill="none" stroke="#595959" stroke-linejoin="round" stroke-miterlimit="10" stroke-dasharray="1,3" d="
																	M-77121.297-171943.5l10478.172-11621.062"/>
																<path fill-opacity="0" d="M-73801.953-172130.188l7158.828-11434.375"/>
																<path fill="none" stroke="#595959" stroke-linejoin="round" stroke-miterlimit="10" stroke-dasharray="1,3" d="
																	M-73801.953-172130.188l7158.828-11434.375"/>
																<path fill-opacity="0" d="M-70931.812-172130.188l4288.688-11434.375"/>
																<path fill="none" stroke="#595959" stroke-linejoin="round" stroke-miterlimit="10" stroke-dasharray="1,3" d="
																	M-70931.812-172130.188l4288.688-11434.375"/>
																<path fill-opacity="0" d="M-91412.961-184987.422v-560.156"/>
																<path fill="none" stroke="#595959" stroke-linejoin="round" stroke-miterlimit="10" d="M-91412.961-184987.422
																	v-560.156"/>
																<path fill-opacity="0" d="M-88328.656-184917.531v-491.531"/>
																<path fill="none" stroke="#595959" stroke-linejoin="round" stroke-miterlimit="10" d="M-88328.656-184917.531
																	v-491.531"/>
																<path fill-opacity="0" d="M-85314.312-184917.531v-560.109"/>
																<path fill="none" stroke="#595959" stroke-linejoin="round" stroke-miterlimit="10" d="M-85314.312-184917.531
																	v-560.109"/>
																<path fill-opacity="0" d="M-82300.148-184987.422v-491.594"/>
																<path fill="none" stroke="#595959" stroke-linejoin="round" stroke-miterlimit="10" d="M-82300.148-184987.422
																	v-491.594"/>
																<path fill-opacity="0" d="M-91318.211-187358.969l4496.695-2401.281"/>
																<path fill="none" stroke="#595959" stroke-linejoin="round" stroke-miterlimit="10" d="M-91318.211-187358.969
																	l4496.695-2401.281"/>
																<path fill-opacity="0" d="M-88337.734-187342.031l1532.031-2365.797"/>
																<path fill="none" stroke="#595959" stroke-linejoin="round" stroke-miterlimit="10" d="M-88337.734-187342.031
																	l1532.031-2365.797"/>
																<path fill-opacity="0" d="M-85425.219-187358.969l-1345.242-2365.812"/>
																<path fill="none" stroke="#595959" stroke-linejoin="round" stroke-miterlimit="10" d="M-85425.219-187358.969
																	l-1345.242-2365.812"/>
																<path fill-opacity="0" d="M-82393.695-187324.891l-4359.633-2401.266"/>
																<path fill="none" stroke="#595959" stroke-linejoin="round" stroke-miterlimit="10" d="M-82393.695-187324.891
																	l-4359.633-2401.266"/>
																<path fill-opacity="0" d="M-86855.781-192453.375l2.359-2233.484"/>
																<path fill="none" stroke="#595959" stroke-linejoin="round" stroke-miterlimit="10" d="M-86855.781-192453.375
																	l2.359-2233.484"/>
																<path fill-opacity="0" d="M-73766.477-196039.953h1345.234v1137.906h-1345.234V-196039.953z"/>
																<g>
																	<g transform="matrix(0.6892792650918635 0.0 0.0 0.6892792650918635 314.00787401574803 126.18110236220473)">
																		<defs>
																			<rect id="SVGID_31_" x="-106505.211" y="-283775.531" width="11.425" height="9.667"/>
																		</defs>
																		<clipPath id="SVGID_32_">
																			<use xlink:href="#SVGID_31_"  overflow="visible"/>
																		</clipPath>
																		<g transform="matrix(1 0 0 1 -0.0078 0)" clip-path="url(#SVGID_32_)" enable-background="new    ">
																			
																				<image overflow="visible" width="26" height="22" xlink:href="9C23579207B739D8.png"  transform="matrix(75.0638 0 0 75.0399 -107475.25 -284596.125)">
																			</image>
																		</g>
																	</g>
																	<path fill-opacity="0" d="M-118265.258-264509.375h3879.383v2714.656h-3879.383V-264509.375z"/>
																	<g>
																		<g transform="matrix(0.8905511811023622 0.0 0.0 0.8905511811023622 214.9291338582677 310.68766404199476)">
																			<defs>
																				<rect id="SVGID_33_" x="-130874.719" y="-295850.344" width="22.709" height="15.896"/>
																			</defs>
																			<clipPath id="SVGID_34_">
																				<use xlink:href="#SVGID_33_"  overflow="visible"/>
																			</clipPath>
																			<g clip-path="url(#SVGID_34_)" enable-background="new    ">
																				
																					<image overflow="visible" width="40" height="28" xlink:href="9C23579207B739DF.png"  transform="matrix(108.9019 0 0 108.8673 -133041.4375 -297366.75)">
																				</image>
																			</g>
																		</g>
																		<path fill-opacity="0" d="M-129835.656-301823.312h4356.062V-299404h-4356.062V-301823.312z"/>
																		<g>
																			<g transform="matrix(0.989501312335958 0.0 0.0 0.989501312335958 241.1442335958005 274.2309711286089)">
																				<defs>
																					<rect id="SVGID_35_" x="-129267.18" y="-304086.781" width="22.709" height="12.616"/>
																				</defs>
																				<clipPath id="SVGID_36_">
																					<use xlink:href="#SVGID_35_"  overflow="visible"/>
																				</clipPath>
																				<g clip-path="url(#SVGID_36_)" enable-background="new    ">
																					
																						<image overflow="visible" width="36" height="20" xlink:href="9C23579207B739DE.png"  transform="matrix(122.286 0 0 122.2471 -131457.0625 -305302.9375)">
																					</image>
																				</g>
																			</g>
																		</g>
																	</g>
																</g>
															</g>
														</g>
													</g>
												</g>
											</g>
										</g>
									</g>
								</g>
							</g>
						</g>
					</g>
				</g>
			</g>
		</g>
	</g>
</g>
</svg>
